# xmcd
#
# Track frame offsets: 
#        150
#        32987
#        51190
#        66421
#        89051
#        115058
#        140237
#        166495
#        181808
#        208602
#        229463
#        257301
#        285201
#        305638
#        325405
#
# Disc length: 4670 seconds
#
# Revision: 0
# Processed by: cddbd v1.5.2PL0 Copyright (c) Steve Scherf et al.
# Submitted via: ExactAudioCopy v1.0b4
#
DISCID=e3123c0f
DTITLE=Barry Levenson - The Late Show
DYEAR=2011
DGENRE=Blues
TTITLE0=Riley`s Shuffle - Blue Tears
TTITLE1=Whole Lotta Blues
TTITLE2=One For Muddy
TTITLE3=Meters Runnin'
TTITLE4=The Late Show
TTITLE5=Turn Up The A.C.
TTITLE6=Slippin' Down Blues
TTITLE7=Charlie's Ride
TTITLE8=Steel Life
TTITLE9=Wrong Side Of The Blues
TTITLE10=West Side rain
TTITLE11=Down At The Hill
TTITLE12=Rush Hour
TTITLE13=Drinkin' Stops Me Thinkin'
TTITLE14=Gree Is Blue
EXTD=
EXTT0=
EXTT1=
EXTT2=
EXTT3=
EXTT4=
EXTT5=
EXTT6=
EXTT7=
EXTT8=
EXTT9=
EXTT10=
EXTT11=
EXTT12=
EXTT13=
EXTT14=
PLAYORDER=
